<mxfile host="app.diagrams.net" agent="Mozilla/5.0 (Windows NT 10.0; Win64; x64) AppleWebKit/537.36 (KHTML, like Gecko) Chrome/131.0.0.0 Safari/537.36" version="25.0.3">
  <diagram name="Страница — 1" id="ebdxqljjL9oTuUYJQ577">
    <mxGraphModel dx="1304" dy="678" grid="1" gridSize="10" guides="1" tooltips="1" connect="1" arrows="1" fold="1" page="1" pageScale="1" pageWidth="1654" pageHeight="1169" math="0" shadow="0">
      <root>
        <mxCell id="0" />
        <mxCell id="1" parent="0" />
        <mxCell id="-5yCZfLTDM8mfpF4syUg-123" value="" style="ellipse;whiteSpace=wrap;html=1;aspect=fixed;strokeColor=#000000;fillColor=#000000;" vertex="1" parent="1">
          <mxGeometry x="235" y="160" width="50" height="50" as="geometry" />
        </mxCell>
        <mxCell id="-5yCZfLTDM8mfpF4syUg-124" value="Вход в систему" style="rounded=1;whiteSpace=wrap;html=1;" vertex="1" parent="1">
          <mxGeometry x="200" y="260" width="120" height="60" as="geometry" />
        </mxCell>
        <mxCell id="-5yCZfLTDM8mfpF4syUg-125" value="" style="endArrow=classic;html=1;rounded=0;exitX=0.5;exitY=1;exitDx=0;exitDy=0;entryX=0.5;entryY=0;entryDx=0;entryDy=0;" edge="1" parent="1" source="-5yCZfLTDM8mfpF4syUg-123" target="-5yCZfLTDM8mfpF4syUg-124">
          <mxGeometry width="50" height="50" relative="1" as="geometry">
            <mxPoint x="455" y="300" as="sourcePoint" />
            <mxPoint x="505" y="250" as="targetPoint" />
          </mxGeometry>
        </mxCell>
        <mxCell id="-5yCZfLTDM8mfpF4syUg-128" value="" style="endArrow=classic;html=1;rounded=0;exitX=0.5;exitY=1;exitDx=0;exitDy=0;entryX=0.5;entryY=0;entryDx=0;entryDy=0;" edge="1" parent="1" source="-5yCZfLTDM8mfpF4syUg-124">
          <mxGeometry width="50" height="50" relative="1" as="geometry">
            <mxPoint x="270" y="220" as="sourcePoint" />
            <mxPoint x="260" y="350" as="targetPoint" />
          </mxGeometry>
        </mxCell>
        <mxCell id="-5yCZfLTDM8mfpF4syUg-129" value="Создание заявки" style="rounded=1;whiteSpace=wrap;html=1;" vertex="1" parent="1">
          <mxGeometry x="200" y="350" width="120" height="40" as="geometry" />
        </mxCell>
        <mxCell id="-5yCZfLTDM8mfpF4syUg-139" value="" style="edgeStyle=orthogonalEdgeStyle;rounded=0;orthogonalLoop=1;jettySize=auto;html=1;" edge="1" parent="1" source="-5yCZfLTDM8mfpF4syUg-130" target="-5yCZfLTDM8mfpF4syUg-133">
          <mxGeometry relative="1" as="geometry" />
        </mxCell>
        <mxCell id="-5yCZfLTDM8mfpF4syUg-130" value="" style="rounded=0;whiteSpace=wrap;html=1;fillColor=#000000;" vertex="1" parent="1">
          <mxGeometry x="200" y="420" width="120" height="10" as="geometry" />
        </mxCell>
        <mxCell id="-5yCZfLTDM8mfpF4syUg-131" value="" style="endArrow=classic;html=1;rounded=0;exitX=0.5;exitY=1;exitDx=0;exitDy=0;entryX=0.5;entryY=0;entryDx=0;entryDy=0;" edge="1" parent="1" source="-5yCZfLTDM8mfpF4syUg-129" target="-5yCZfLTDM8mfpF4syUg-130">
          <mxGeometry width="50" height="50" relative="1" as="geometry">
            <mxPoint x="280" y="230" as="sourcePoint" />
            <mxPoint x="280" y="280" as="targetPoint" />
          </mxGeometry>
        </mxCell>
        <mxCell id="-5yCZfLTDM8mfpF4syUg-132" value="" style="endArrow=classic;html=1;rounded=0;exitX=0.5;exitY=1;exitDx=0;exitDy=0;" edge="1" parent="1">
          <mxGeometry width="50" height="50" relative="1" as="geometry">
            <mxPoint x="259.67" y="430" as="sourcePoint" />
            <mxPoint x="260" y="470" as="targetPoint" />
          </mxGeometry>
        </mxCell>
        <mxCell id="-5yCZfLTDM8mfpF4syUg-133" value="Выход из системы" style="rounded=1;whiteSpace=wrap;html=1;" vertex="1" parent="1">
          <mxGeometry x="200" y="470" width="120" height="40" as="geometry" />
        </mxCell>
        <mxCell id="-5yCZfLTDM8mfpF4syUg-135" value="" style="rounded=0;whiteSpace=wrap;html=1;fillColor=#000000;" vertex="1" parent="1">
          <mxGeometry x="200" y="630" width="120" height="10" as="geometry" />
        </mxCell>
        <mxCell id="-5yCZfLTDM8mfpF4syUg-136" value="" style="endArrow=classic;html=1;rounded=0;exitX=0.5;exitY=1;exitDx=0;exitDy=0;" edge="1" parent="1">
          <mxGeometry width="50" height="50" relative="1" as="geometry">
            <mxPoint x="259.67" y="640" as="sourcePoint" />
            <mxPoint x="260" y="680" as="targetPoint" />
          </mxGeometry>
        </mxCell>
        <mxCell id="-5yCZfLTDM8mfpF4syUg-138" value="" style="ellipse;whiteSpace=wrap;html=1;aspect=fixed;strokeColor=#000000;fillColor=#000000;perimeterSpacing=0;strokeWidth=0;fillStyle=auto;" vertex="1" parent="1">
          <mxGeometry x="235" y="550" width="50" height="50" as="geometry" />
        </mxCell>
        <mxCell id="-5yCZfLTDM8mfpF4syUg-140" value="" style="endArrow=classic;html=1;rounded=0;exitX=0.5;exitY=1;exitDx=0;exitDy=0;" edge="1" parent="1">
          <mxGeometry width="50" height="50" relative="1" as="geometry">
            <mxPoint x="259.74" y="510" as="sourcePoint" />
            <mxPoint x="260.07" y="550" as="targetPoint" />
          </mxGeometry>
        </mxCell>
        <mxCell id="-5yCZfLTDM8mfpF4syUg-143" value="" style="ellipse;whiteSpace=wrap;html=1;aspect=fixed;strokeColor=#FFFFFF;fillColor=none;perimeterSpacing=0;strokeWidth=4;fillStyle=auto;" vertex="1" parent="1">
          <mxGeometry x="240" y="555" width="40" height="40" as="geometry" />
        </mxCell>
        <mxCell id="-5yCZfLTDM8mfpF4syUg-144" value="" style="ellipse;whiteSpace=wrap;html=1;aspect=fixed;strokeColor=#000000;fillColor=#000000;perimeterSpacing=0;strokeWidth=0;fillStyle=auto;" vertex="1" parent="1">
          <mxGeometry x="235" y="680" width="50" height="50" as="geometry" />
        </mxCell>
        <mxCell id="-5yCZfLTDM8mfpF4syUg-145" value="" style="ellipse;whiteSpace=wrap;html=1;aspect=fixed;strokeColor=#FFFFFF;fillColor=none;perimeterSpacing=0;strokeWidth=4;fillStyle=auto;" vertex="1" parent="1">
          <mxGeometry x="240" y="685" width="40" height="40" as="geometry" />
        </mxCell>
        <mxCell id="-5yCZfLTDM8mfpF4syUg-148" value="" style="endArrow=none;html=1;rounded=0;" edge="1" parent="1">
          <mxGeometry width="50" height="50" relative="1" as="geometry">
            <mxPoint x="160" y="40" as="sourcePoint" />
            <mxPoint x="160" y="770" as="targetPoint" />
          </mxGeometry>
        </mxCell>
        <mxCell id="-5yCZfLTDM8mfpF4syUg-151" value="" style="endArrow=none;html=1;rounded=0;" edge="1" parent="1">
          <mxGeometry width="50" height="50" relative="1" as="geometry">
            <mxPoint x="360" y="40" as="sourcePoint" />
            <mxPoint x="360" y="770" as="targetPoint" />
          </mxGeometry>
        </mxCell>
        <mxCell id="-5yCZfLTDM8mfpF4syUg-152" value="" style="endArrow=none;html=1;rounded=0;" edge="1" parent="1">
          <mxGeometry width="50" height="50" relative="1" as="geometry">
            <mxPoint x="660" y="40" as="sourcePoint" />
            <mxPoint x="660" y="770" as="targetPoint" />
          </mxGeometry>
        </mxCell>
        <mxCell id="-5yCZfLTDM8mfpF4syUg-153" value="&lt;span style=&quot;font-size: 19px;&quot;&gt;Система&lt;/span&gt;" style="text;html=1;align=center;verticalAlign=middle;resizable=0;points=[];autosize=1;strokeColor=none;fillColor=none;" vertex="1" parent="1">
          <mxGeometry x="455" y="35" width="100" height="40" as="geometry" />
        </mxCell>
        <mxCell id="-5yCZfLTDM8mfpF4syUg-157" style="edgeStyle=orthogonalEdgeStyle;rounded=0;orthogonalLoop=1;jettySize=auto;html=1;exitX=0.5;exitY=1;exitDx=0;exitDy=0;entryX=0.5;entryY=0;entryDx=0;entryDy=0;" edge="1" parent="1" source="-5yCZfLTDM8mfpF4syUg-155" target="-5yCZfLTDM8mfpF4syUg-156">
          <mxGeometry relative="1" as="geometry" />
        </mxCell>
        <mxCell id="-5yCZfLTDM8mfpF4syUg-155" value="" style="ellipse;whiteSpace=wrap;html=1;aspect=fixed;strokeColor=#000000;fillColor=#000000;" vertex="1" parent="1">
          <mxGeometry x="480" y="140" width="50" height="50" as="geometry" />
        </mxCell>
        <mxCell id="-5yCZfLTDM8mfpF4syUg-156" value="Проверка данных" style="rounded=1;whiteSpace=wrap;html=1;" vertex="1" parent="1">
          <mxGeometry x="445" y="250" width="120" height="30" as="geometry" />
        </mxCell>
        <mxCell id="-5yCZfLTDM8mfpF4syUg-162" style="edgeStyle=orthogonalEdgeStyle;rounded=0;orthogonalLoop=1;jettySize=auto;html=1;entryX=0;entryY=0.5;entryDx=0;entryDy=0;" edge="1" parent="1" source="-5yCZfLTDM8mfpF4syUg-159" target="-5yCZfLTDM8mfpF4syUg-161">
          <mxGeometry relative="1" as="geometry">
            <Array as="points">
              <mxPoint x="370" y="330" />
              <mxPoint x="370" y="485" />
            </Array>
          </mxGeometry>
        </mxCell>
        <mxCell id="-5yCZfLTDM8mfpF4syUg-159" value="Данные корректны?" style="shape=hexagon;perimeter=hexagonPerimeter2;whiteSpace=wrap;html=1;fixedSize=1;" vertex="1" parent="1">
          <mxGeometry x="430" y="310" width="135" height="40" as="geometry" />
        </mxCell>
        <mxCell id="-5yCZfLTDM8mfpF4syUg-166" style="edgeStyle=orthogonalEdgeStyle;rounded=0;orthogonalLoop=1;jettySize=auto;html=1;exitX=0.5;exitY=1;exitDx=0;exitDy=0;entryX=0.5;entryY=0;entryDx=0;entryDy=0;" edge="1" parent="1" source="-5yCZfLTDM8mfpF4syUg-160" target="-5yCZfLTDM8mfpF4syUg-164">
          <mxGeometry relative="1" as="geometry" />
        </mxCell>
        <mxCell id="-5yCZfLTDM8mfpF4syUg-160" value="Ошибка" style="rounded=1;whiteSpace=wrap;html=1;" vertex="1" parent="1">
          <mxGeometry x="540" y="380" width="100" height="50" as="geometry" />
        </mxCell>
        <mxCell id="-5yCZfLTDM8mfpF4syUg-169" style="edgeStyle=orthogonalEdgeStyle;rounded=0;orthogonalLoop=1;jettySize=auto;html=1;entryX=0.5;entryY=0;entryDx=0;entryDy=0;" edge="1" parent="1" source="-5yCZfLTDM8mfpF4syUg-161" target="-5yCZfLTDM8mfpF4syUg-167">
          <mxGeometry relative="1" as="geometry" />
        </mxCell>
        <mxCell id="-5yCZfLTDM8mfpF4syUg-161" value="Отправить заявку диспетчеру" style="rounded=1;whiteSpace=wrap;html=1;" vertex="1" parent="1">
          <mxGeometry x="390" y="460" width="100" height="50" as="geometry" />
        </mxCell>
        <mxCell id="-5yCZfLTDM8mfpF4syUg-163" style="edgeStyle=orthogonalEdgeStyle;rounded=0;orthogonalLoop=1;jettySize=auto;html=1;exitX=1;exitY=0.5;exitDx=0;exitDy=0;entryX=0.56;entryY=-0.004;entryDx=0;entryDy=0;entryPerimeter=0;" edge="1" parent="1" source="-5yCZfLTDM8mfpF4syUg-159" target="-5yCZfLTDM8mfpF4syUg-160">
          <mxGeometry relative="1" as="geometry" />
        </mxCell>
        <mxCell id="-5yCZfLTDM8mfpF4syUg-164" value="" style="ellipse;whiteSpace=wrap;html=1;aspect=fixed;strokeColor=#000000;fillColor=#000000;perimeterSpacing=0;strokeWidth=0;fillStyle=auto;" vertex="1" parent="1">
          <mxGeometry x="565" y="470" width="50" height="50" as="geometry" />
        </mxCell>
        <mxCell id="-5yCZfLTDM8mfpF4syUg-165" value="" style="ellipse;whiteSpace=wrap;html=1;aspect=fixed;strokeColor=#FFFFFF;fillColor=none;perimeterSpacing=0;strokeWidth=4;fillStyle=auto;" vertex="1" parent="1">
          <mxGeometry x="570" y="475" width="40" height="40" as="geometry" />
        </mxCell>
        <mxCell id="-5yCZfLTDM8mfpF4syUg-167" value="" style="ellipse;whiteSpace=wrap;html=1;aspect=fixed;strokeColor=#000000;fillColor=#000000;perimeterSpacing=0;strokeWidth=0;fillStyle=auto;" vertex="1" parent="1">
          <mxGeometry x="415" y="560" width="50" height="50" as="geometry" />
        </mxCell>
        <mxCell id="-5yCZfLTDM8mfpF4syUg-168" value="" style="ellipse;whiteSpace=wrap;html=1;aspect=fixed;strokeColor=#FFFFFF;fillColor=none;perimeterSpacing=0;strokeWidth=4;fillStyle=auto;" vertex="1" parent="1">
          <mxGeometry x="420" y="565" width="40" height="40" as="geometry" />
        </mxCell>
        <mxCell id="-5yCZfLTDM8mfpF4syUg-170" style="edgeStyle=orthogonalEdgeStyle;rounded=0;orthogonalLoop=1;jettySize=auto;html=1;exitX=0.5;exitY=1;exitDx=0;exitDy=0;entryX=0.533;entryY=-0.044;entryDx=0;entryDy=0;entryPerimeter=0;" edge="1" parent="1" source="-5yCZfLTDM8mfpF4syUg-156" target="-5yCZfLTDM8mfpF4syUg-159">
          <mxGeometry relative="1" as="geometry" />
        </mxCell>
        <mxCell id="-5yCZfLTDM8mfpF4syUg-171" value="Да" style="text;html=1;align=center;verticalAlign=middle;resizable=0;points=[];autosize=1;strokeColor=none;fillColor=none;" vertex="1" parent="1">
          <mxGeometry x="380" y="300" width="40" height="30" as="geometry" />
        </mxCell>
        <mxCell id="-5yCZfLTDM8mfpF4syUg-172" value="Нет" style="text;html=1;align=center;verticalAlign=middle;resizable=0;points=[];autosize=1;strokeColor=none;fillColor=none;" vertex="1" parent="1">
          <mxGeometry x="565" y="300" width="40" height="30" as="geometry" />
        </mxCell>
        <mxCell id="-5yCZfLTDM8mfpF4syUg-175" value="" style="endArrow=none;html=1;rounded=0;" edge="1" parent="1">
          <mxGeometry width="50" height="50" relative="1" as="geometry">
            <mxPoint x="1000" y="40" as="sourcePoint" />
            <mxPoint x="1000" y="770" as="targetPoint" />
          </mxGeometry>
        </mxCell>
        <mxCell id="-5yCZfLTDM8mfpF4syUg-180" style="edgeStyle=orthogonalEdgeStyle;rounded=0;orthogonalLoop=1;jettySize=auto;html=1;" edge="1" parent="1" source="-5yCZfLTDM8mfpF4syUg-177" target="-5yCZfLTDM8mfpF4syUg-179">
          <mxGeometry relative="1" as="geometry" />
        </mxCell>
        <mxCell id="-5yCZfLTDM8mfpF4syUg-177" value="" style="ellipse;whiteSpace=wrap;html=1;aspect=fixed;strokeColor=#000000;fillColor=#000000;" vertex="1" parent="1">
          <mxGeometry x="820" y="140" width="40" height="40" as="geometry" />
        </mxCell>
        <mxCell id="-5yCZfLTDM8mfpF4syUg-182" style="edgeStyle=orthogonalEdgeStyle;rounded=0;orthogonalLoop=1;jettySize=auto;html=1;exitX=0.5;exitY=1;exitDx=0;exitDy=0;entryX=0.5;entryY=0;entryDx=0;entryDy=0;" edge="1" parent="1" source="-5yCZfLTDM8mfpF4syUg-179" target="-5yCZfLTDM8mfpF4syUg-181">
          <mxGeometry relative="1" as="geometry" />
        </mxCell>
        <mxCell id="-5yCZfLTDM8mfpF4syUg-179" value="&lt;font style=&quot;font-size: 10px;&quot;&gt;Регистрация заявки в плане работ&lt;/font&gt;" style="rounded=1;whiteSpace=wrap;html=1;" vertex="1" parent="1">
          <mxGeometry x="780" y="230" width="120" height="30" as="geometry" />
        </mxCell>
        <mxCell id="-5yCZfLTDM8mfpF4syUg-181" value="&lt;font style=&quot;font-size: 10px;&quot;&gt;Назначение бригады&lt;/font&gt;" style="rounded=1;whiteSpace=wrap;html=1;" vertex="1" parent="1">
          <mxGeometry x="780" y="310" width="120" height="30" as="geometry" />
        </mxCell>
        <mxCell id="-5yCZfLTDM8mfpF4syUg-183" value="" style="endArrow=none;html=1;rounded=0;" edge="1" parent="1">
          <mxGeometry width="50" height="50" relative="1" as="geometry">
            <mxPoint x="1300" y="40" as="sourcePoint" />
            <mxPoint x="1300" y="770" as="targetPoint" />
          </mxGeometry>
        </mxCell>
        <mxCell id="-5yCZfLTDM8mfpF4syUg-184" value="&lt;font style=&quot;font-size: 20px;&quot;&gt;Диспетчер&lt;/font&gt;" style="text;html=1;align=center;verticalAlign=middle;resizable=0;points=[];autosize=1;strokeColor=none;fillColor=none;" vertex="1" parent="1">
          <mxGeometry x="790" y="35" width="120" height="40" as="geometry" />
        </mxCell>
        <mxCell id="-5yCZfLTDM8mfpF4syUg-185" value="&lt;font style=&quot;font-size: 17px;&quot;&gt;Квартирник&lt;/font&gt;" style="text;html=1;align=center;verticalAlign=middle;resizable=0;points=[];autosize=1;strokeColor=none;fillColor=none;" vertex="1" parent="1">
          <mxGeometry x="195" y="40" width="110" height="30" as="geometry" />
        </mxCell>
        <mxCell id="-5yCZfLTDM8mfpF4syUg-186" value="&lt;span style=&quot;font-size: 20px;&quot;&gt;Бригада&lt;/span&gt;" style="text;html=1;align=center;verticalAlign=middle;resizable=0;points=[];autosize=1;strokeColor=none;fillColor=none;" vertex="1" parent="1">
          <mxGeometry x="1110" y="30" width="100" height="40" as="geometry" />
        </mxCell>
        <mxCell id="-5yCZfLTDM8mfpF4syUg-188" value="" style="ellipse;whiteSpace=wrap;html=1;aspect=fixed;strokeColor=#000000;fillColor=#000000;perimeterSpacing=0;strokeWidth=0;fillStyle=auto;" vertex="1" parent="1">
          <mxGeometry x="815" y="390" width="50" height="50" as="geometry" />
        </mxCell>
        <mxCell id="-5yCZfLTDM8mfpF4syUg-189" value="" style="ellipse;whiteSpace=wrap;html=1;aspect=fixed;strokeColor=#FFFFFF;fillColor=none;perimeterSpacing=0;strokeWidth=4;fillStyle=auto;" vertex="1" parent="1">
          <mxGeometry x="820" y="395" width="40" height="40" as="geometry" />
        </mxCell>
        <mxCell id="-5yCZfLTDM8mfpF4syUg-193" style="edgeStyle=orthogonalEdgeStyle;rounded=0;orthogonalLoop=1;jettySize=auto;html=1;entryX=0.5;entryY=0;entryDx=0;entryDy=0;exitX=0.521;exitY=1.016;exitDx=0;exitDy=0;exitPerimeter=0;" edge="1" parent="1" source="-5yCZfLTDM8mfpF4syUg-181" target="-5yCZfLTDM8mfpF4syUg-188">
          <mxGeometry relative="1" as="geometry">
            <mxPoint x="810" y="350" as="sourcePoint" />
            <mxPoint x="610" y="490" as="targetPoint" />
          </mxGeometry>
        </mxCell>
        <mxCell id="-5yCZfLTDM8mfpF4syUg-194" style="edgeStyle=orthogonalEdgeStyle;rounded=0;orthogonalLoop=1;jettySize=auto;html=1;" edge="1" parent="1" source="-5yCZfLTDM8mfpF4syUg-195" target="-5yCZfLTDM8mfpF4syUg-197">
          <mxGeometry relative="1" as="geometry" />
        </mxCell>
        <mxCell id="-5yCZfLTDM8mfpF4syUg-195" value="" style="ellipse;whiteSpace=wrap;html=1;aspect=fixed;strokeColor=#000000;fillColor=#000000;" vertex="1" parent="1">
          <mxGeometry x="1140" y="180" width="40" height="40" as="geometry" />
        </mxCell>
        <mxCell id="-5yCZfLTDM8mfpF4syUg-196" style="edgeStyle=orthogonalEdgeStyle;rounded=0;orthogonalLoop=1;jettySize=auto;html=1;exitX=0.5;exitY=1;exitDx=0;exitDy=0;entryX=0.5;entryY=0;entryDx=0;entryDy=0;" edge="1" parent="1" source="-5yCZfLTDM8mfpF4syUg-197" target="-5yCZfLTDM8mfpF4syUg-198">
          <mxGeometry relative="1" as="geometry" />
        </mxCell>
        <mxCell id="-5yCZfLTDM8mfpF4syUg-197" value="&lt;font style=&quot;font-size: 10px;&quot;&gt;Получить назначение&lt;/font&gt;" style="rounded=1;whiteSpace=wrap;html=1;" vertex="1" parent="1">
          <mxGeometry x="1100" y="270" width="120" height="30" as="geometry" />
        </mxCell>
        <mxCell id="-5yCZfLTDM8mfpF4syUg-198" value="&lt;font style=&quot;font-size: 10px;&quot;&gt;Назначение бригады&lt;/font&gt;" style="rounded=1;whiteSpace=wrap;html=1;" vertex="1" parent="1">
          <mxGeometry x="1100" y="350" width="120" height="30" as="geometry" />
        </mxCell>
        <mxCell id="-5yCZfLTDM8mfpF4syUg-199" value="" style="ellipse;whiteSpace=wrap;html=1;aspect=fixed;strokeColor=#000000;fillColor=#000000;perimeterSpacing=0;strokeWidth=0;fillStyle=auto;" vertex="1" parent="1">
          <mxGeometry x="1135" y="430" width="50" height="50" as="geometry" />
        </mxCell>
        <mxCell id="-5yCZfLTDM8mfpF4syUg-200" value="" style="ellipse;whiteSpace=wrap;html=1;aspect=fixed;strokeColor=#FFFFFF;fillColor=none;perimeterSpacing=0;strokeWidth=4;fillStyle=auto;" vertex="1" parent="1">
          <mxGeometry x="1140" y="435" width="40" height="40" as="geometry" />
        </mxCell>
        <mxCell id="-5yCZfLTDM8mfpF4syUg-201" style="edgeStyle=orthogonalEdgeStyle;rounded=0;orthogonalLoop=1;jettySize=auto;html=1;entryX=0.5;entryY=0;entryDx=0;entryDy=0;exitX=0.521;exitY=1.016;exitDx=0;exitDy=0;exitPerimeter=0;" edge="1" parent="1" source="-5yCZfLTDM8mfpF4syUg-198" target="-5yCZfLTDM8mfpF4syUg-199">
          <mxGeometry relative="1" as="geometry">
            <mxPoint x="1130" y="390" as="sourcePoint" />
            <mxPoint x="930" y="530" as="targetPoint" />
          </mxGeometry>
        </mxCell>
      </root>
    </mxGraphModel>
  </diagram>
</mxfile>
